<?xml version="1.0" standalone="no"?>
<!DOCTYPE svg PUBLIC "-//W3C//DTD SVG 20010904//EN"
 "http://www.w3.org/TR/2001/REC-SVG-20010904/DTD/svg10.dtd">
<svg version="1.0" xmlns="http://www.w3.org/2000/svg"
 width="276.000000pt" height="276.000000pt" viewBox="0 0 276.000000 276.000000"
 preserveAspectRatio="xMidYMid meet">
<metadata>
Created by potrace 1.11, written by Peter Selinger 2001-2013
</metadata>
<g transform="translate(0.000000,276.000000) scale(0.100000,-0.100000)"
fill="#000000" stroke="none">
<path d="M1307 2754 c-1 -1 -33 -4 -71 -8 -81 -8 -240 -46 -332 -81 -307 -116
-602 -384 -754 -685 -193 -383 -194 -832 -3 -1215 189 -379 526 -638 953 -731
119 -26 409 -27 530 -1 227 49 443 153 605 290 65 56 186 175 223 221 141 171
258 444 287 671 6 46 6 325 0 365 -24 160 -91 352 -167 485 -29 49 -56 95 -60
100 -4 6 -29 37 -54 70 -26 33 -68 82 -93 108 -49 51 -213 187 -227 187 -4 0
-15 6 -23 14 -28 24 -143 82 -237 119 -157 62 -296 88 -487 91 -49 1 -89 1
-90 0z m220 -530 c325 -68 560 -277 668 -595 37 -105 48 -247 33 -389 -7 -68
-58 -215 -99 -289 -66 -118 -172 -237 -248 -278 -20 -11 -57 -32 -83 -47 -100
-56 -276 -100 -403 -100 -193 0 -407 75 -550 194 -213 176 -327 428 -319 705
3 108 18 179 57 280 51 131 146 272 224 331 21 15 44 34 51 41 20 20 131 79
192 103 136 54 341 73 477 44z"/>
<path d="M1101 2059 c-20 -15 -121 -112 -225 -217 l-189 -190 0 -284 0 -284
201 -201 201 -202 283 0 283 -1 213 213 212 213 1 259 c0 143 0 272 0 287 -1
22 -41 68 -202 229 l-200 200 -272 2 -271 2 -35 -26z m542 -407 l117 -117 -1
-168 0 -168 -103 -102 -103 -102 -162 0 -161 1 -115 114 -115 115 1 163 0 163
107 109 107 109 155 1 155 0 118 -118z"/>
</g>
</svg>
