<?xml version="1.0" standalone="no"?>
<!DOCTYPE svg PUBLIC "-//W3C//DTD SVG 20010904//EN"
 "http://www.w3.org/TR/2001/REC-SVG-20010904/DTD/svg10.dtd">
<svg version="1.0" xmlns="http://www.w3.org/2000/svg"
 width="900.000000pt" height="900.000000pt" viewBox="0 0 900.000000 900.000000"
 preserveAspectRatio="xMidYMid meet">
<metadata>
Created by potrace 1.11, written by Peter Selinger 2001-2013
</metadata>
<g transform="translate(0.000000,900.000000) scale(0.100000,-0.100000)"
fill="#000000" stroke="none">
<path d="M0 4500 l0 -4500 4500 0 4500 0 0 4500 0 4500 -4500 0 -4500 0 0
-4500z m5329 3794 c41 -9 86 -53 102 -101 16 -52 73 -166 148 -300 67 -119 77
-160 75 -304 l0 -56 92 5 92 5 27 -41 c35 -53 61 -155 70 -270 8 -99 9 -94
-57 -226 -16 -32 -39 -73 -52 -90 -13 -17 -26 -38 -29 -46 -4 -8 -11 -22 -16
-30 -14 -24 -28 -59 -65 -160 -19 -52 -49 -133 -67 -180 -34 -90 -39 -147 -19
-237 6 -24 13 -67 16 -94 7 -68 49 -230 73 -284 27 -61 123 -204 165 -245 19
-19 36 -42 36 -50 0 -9 -13 -30 -30 -48 -30 -33 -39 -66 -21 -77 6 -3 26 -32
46 -65 l37 -60 -16 -78 c-30 -154 -36 -200 -41 -352 -3 -85 -8 -175 -11 -199
-5 -41 -7 -43 -34 -39 -20 3 -30 0 -33 -11 -19 -61 -47 -182 -62 -266 -10 -55
-23 -123 -30 -152 -16 -66 -1 -221 26 -275 10 -21 19 -43 19 -50 0 -7 7 -22
15 -32 14 -18 16 -18 33 -3 29 26 50 21 56 -13 3 -17 8 -42 11 -57 3 -17 19
-38 40 -52 41 -28 44 -52 10 -79 -29 -23 -30 -26 -12 -44 74 -77 73 -102 -3
-153 -36 -24 -74 -60 -94 -90 -46 -69 -44 -65 -65 -147 -16 -63 -18 -86 -9
-163 7 -64 6 -118 -3 -185 -11 -91 -11 -98 10 -137 27 -54 27 -73 -4 -133 -16
-32 -23 -59 -19 -74 5 -22 9 -23 42 -15 20 5 53 12 72 15 19 3 60 12 90 19 30
8 66 16 80 19 55 12 116 27 130 33 8 3 24 8 35 10 11 2 37 10 57 18 20 8 47
16 60 19 24 4 296 106 358 133 42 19 348 170 370 183 203 118 343 207 417 265
28 22 73 56 100 75 237 171 652 583 796 790 9 14 37 52 62 85 25 33 63 86 84
118 52 77 54 68 26 -108 -3 -16 -8 -52 -11 -80 -5 -41 -65 -341 -79 -395 -3
-13 -79 -264 -89 -295 -7 -23 -18 -52 -32 -83 -8 -18 -14 -37 -14 -43 0 -6 -9
-29 -19 -52 -10 -23 -26 -60 -35 -82 -39 -94 -54 -126 -112 -240 -103 -203
-203 -376 -266 -456 -15 -20 -28 -41 -28 -46 0 -5 -11 -20 -25 -33 -14 -13
-25 -27 -25 -32 0 -10 -77 -110 -179 -233 -96 -116 -370 -390 -486 -486 -138
-115 -305 -239 -383 -284 -10 -5 -49 -31 -87 -56 -117 -77 -376 -213 -520
-273 -49 -20 -103 -43 -120 -50 -16 -8 -46 -19 -65 -26 -19 -7 -44 -16 -55
-20 -75 -31 -239 -81 -410 -125 -43 -11 -149 -34 -235 -50 -14 -3 -36 -7 -50
-10 -48 -9 -143 -22 -225 -30 -27 -3 -79 -9 -115 -12 -86 -10 -550 -10 -670
-1 -100 8 -248 25 -290 34 -14 3 -38 7 -55 10 -207 32 -594 136 -730 195 -11
5 -45 18 -75 30 -30 11 -66 25 -80 31 -14 5 -27 9 -30 10 -3 0 -16 6 -30 13
-14 8 -81 41 -150 74 -230 110 -438 238 -682 419 -250 185 -601 539 -778 785
-19 27 -51 69 -70 95 -45 59 -149 222 -181 282 -13 25 -29 52 -35 60 -22 28
-192 371 -199 400 -1 3 -8 21 -16 40 -23 52 -99 255 -104 276 -2 11 -18 64
-35 119 -30 96 -69 245 -86 330 -4 22 -8 42 -9 45 -1 3 -5 28 -10 55 -4 28 -9
59 -11 70 -19 98 -30 189 -42 330 -9 115 -9 580 1 665 4 36 9 88 12 115 18
164 41 292 82 464 8 36 16 72 18 80 16 77 114 387 135 423 6 10 10 23 10 29 0
5 11 35 25 65 14 30 25 57 25 61 0 13 124 269 174 358 18 33 46 83 61 110 29
51 195 301 243 366 220 295 522 602 779 792 21 15 63 46 93 70 30 23 62 47 71
52 9 6 26 16 37 22 18 11 -28 -76 -98 -187 -72 -114 -270 -547 -294 -645 -2
-5 -6 -17 -9 -25 -85 -225 -180 -652 -202 -915 -3 -38 -8 -99 -11 -135 -16
-186 0 -582 31 -770 8 -47 16 -101 19 -120 7 -45 64 -296 76 -335 5 -16 22
-68 37 -115 28 -89 104 -292 130 -347 13 -27 18 -31 34 -23 13 7 24 7 38 -2
17 -10 31 -9 78 7 32 10 80 30 108 43 54 27 59 26 265 -13 42 -8 108 -15 149
-15 106 0 117 10 181 172 49 123 120 296 140 343 37 83 70 172 70 186 0 13
-14 17 -67 22 -48 3 -85 14 -128 36 -58 29 -145 100 -145 118 0 5 26 40 58 78
31 38 82 99 112 136 30 37 91 111 135 164 44 54 98 121 120 150 22 29 69 89
105 135 72 91 159 208 205 273 45 64 267 401 295 448 77 128 120 183 265 339
164 176 234 232 392 317 51 27 71 32 116 30 36 -1 60 3 72 13 22 18 268 322
383 474 270 354 303 383 421 360z"/>
<path d="M5418 7832 c-53 -24 -58 -30 -81 -87 -13 -33 -32 -98 -41 -145 -13
-65 -23 -91 -45 -115 -65 -70 -90 -118 -106 -205 -9 -47 -21 -105 -27 -130
-26 -108 -5 -116 57 -21 43 66 48 70 90 77 32 4 55 2 79 -10 19 -9 57 -16 85
-16 51 0 51 1 70 43 11 23 27 80 38 126 15 70 23 88 51 112 l33 29 -10 94 c-8
81 -16 106 -55 185 -32 63 -51 91 -64 90 -9 0 -43 -12 -74 -27z"/>
<path d="M4370 7305 c-59 -39 -137 -123 -184 -197 -19 -29 -15 -48 10 -48 19
0 284 258 284 276 0 26 -45 13 -110 -31z"/>
</g>
</svg>
